<svg xmlns="http://www.w3.org/2000/svg" viewBox="0 0 159.55 53.86"><defs><style>.cls-1{fill:#fff;fill-rule:evenodd;}</style></defs><g id="Capa_2" data-name="Capa 2"><g id="pollo"><path class="cls-1" d="M17.57,2.45a.78.78,0,0,1-.36.65,1.45,1.45,0,0,1-.72.21,1.75,1.75,0,0,1-1.15-.43A1.63,1.63,0,0,0,14,2.3C11.23,2.3,8.57,3.89,6,7,3.53,9.86,2.3,12.6,2.3,15.12a3.36,3.36,0,0,0,1.59,3.1,4.94,4.94,0,0,0,2.59.57,9.84,9.84,0,0,0,4.61-1.22c1.37-.87,2.73-1.8,4.1-2.59a1.19,1.19,0,0,1,.87.28,1.18,1.18,0,0,1,.36.94c0,.79-1.23,1.8-3.6,3A14.43,14.43,0,0,1,6.34,21.1a6.94,6.94,0,0,1-4.25-1.23A5.57,5.57,0,0,1,0,15.05c0-3.24,1.37-6.48,4.39-9.87S10.58,0,13.82,0a4.36,4.36,0,0,1,2.81.79A2.21,2.21,0,0,1,17.57,2.45Z"/><path class="cls-1" d="M30.53,10.73a17.72,17.72,0,0,0-1.23,4.32,19.55,19.55,0,0,0-.64,5.11,1.09,1.09,0,0,1-.29.79,1,1,0,0,1-.79.36,1,1,0,0,1-.87-.43,1.66,1.66,0,0,1-.43-.94,2.74,2.74,0,0,1-1.3.87,5.2,5.2,0,0,1-2.37.5A5.3,5.3,0,0,1,19.37,20a4.64,4.64,0,0,1-1.8-3.82,6,6,0,0,1,2.09-4.61,8.22,8.22,0,0,1,5.4-1.87,3,3,0,0,1,1.87.36.77.77,0,0,1,.29.72,1.16,1.16,0,0,1-.22.79,1.36,1.36,0,0,1-1.08.36,7.42,7.42,0,0,0-4.61,1.3,3.91,3.91,0,0,0-1.44,2.95,2.55,2.55,0,0,0,1,2.23,3.33,3.33,0,0,0,1.87.51,5.19,5.19,0,0,0,1.87-.36,4.13,4.13,0,0,0,1.73-1A63.39,63.39,0,0,1,28,10.94c.36-.79.86-1.22,1.37-1.22a1.07,1.07,0,0,1,.79.29A.89.89,0,0,1,30.53,10.73Z"/><path class="cls-1" d="M36.94,1.87,33.62,20.23a.93.93,0,0,1-.43.65,1.05,1.05,0,0,1-.86.36.74.74,0,0,1-.65-.36,1,1,0,0,1-.29-.79L34.56,1.8A1,1,0,0,1,35.71.94a1.31,1.31,0,0,1,.79.28A.79.79,0,0,1,36.94,1.87Z"/><path class="cls-1" d="M41.54,6.41A1.53,1.53,0,0,1,41,7.49a2,2,0,0,1-1.15.29A1.37,1.37,0,0,1,39,7.49a1.24,1.24,0,0,1-.36-1.08,1.17,1.17,0,0,1,.36-1A1.17,1.17,0,0,1,39.89,5,1.63,1.63,0,0,1,41,5.4a1.51,1.51,0,0,1,.5,1Zm-1.22,4.25a10.26,10.26,0,0,1-.22,1.72c-.36,2.31-.86,5-1.29,7.92a1.48,1.48,0,0,1-.43.72,1.53,1.53,0,0,1-.87.29.84.84,0,0,1-.57-.36.83.83,0,0,1-.44-.79,7.32,7.32,0,0,1,.29-1.51c.36-2.23.79-5,1.37-8.07.07-.57.43-.86,1.08-.86A.88.88,0,0,1,40,10,.86.86,0,0,1,40.32,10.66Z"/><path class="cls-1" d="M48,18.36h0v2.23h0c.36-.14.79-.29,1.08-.43a6.2,6.2,0,0,0,1.59-.94c0,.29-.08.51-.08.8s0,.72.29.93a.88.88,0,0,0,.72.36c.65,0,1.15-.29,1.23-.86L55.87,1.94a1.15,1.15,0,0,0-.21-.57,1,1,0,0,0-.8-.43,1.83,1.83,0,0,0-.86.28,1,1,0,0,0-.36.58L52.27,9.72a1.74,1.74,0,0,0-.65-.14,6.3,6.3,0,0,0-1.36-.08A8.31,8.31,0,0,0,48,9.79h0V12a14.72,14.72,0,0,1,1.87-.14,8.74,8.74,0,0,1,2.09.14l-.86,4.61a14.5,14.5,0,0,1-2.16,1.37Zm0,0a7,7,0,0,1-2.23.43,1.85,1.85,0,0,1-1.08-.29,1.54,1.54,0,0,1-.72-1.36,5,5,0,0,1,1.44-3.46A4.81,4.81,0,0,1,48,12V9.79a8.11,8.11,0,0,0-4.25,2.38A7.45,7.45,0,0,0,41.62,17a3.74,3.74,0,0,0,1.65,3.24,4.11,4.11,0,0,0,2.31.87A6.11,6.11,0,0,0,48,20.59Z"/><path class="cls-1" d="M67.9,10.73c-.44,1.22-.8,2.73-1.23,4.32a28.38,28.38,0,0,0-.5,5.11,1.16,1.16,0,0,1-.36.79.92.92,0,0,1-.79.36,1.39,1.39,0,0,1-.87-.43,2.12,2.12,0,0,1-.29-.94,3.75,3.75,0,0,1-1.44.87,4.5,4.5,0,0,1-2.3.5A5.31,5.31,0,0,1,56.81,20a4.58,4.58,0,0,1-1.73-3.82,5.67,5.67,0,0,1,2.16-4.61,7.53,7.53,0,0,1,5.18-1.87,3.43,3.43,0,0,1,2,.36c.22.14.29.36.29.72a1.11,1.11,0,0,1-.22.79,1.59,1.59,0,0,1-1.08.36,7.28,7.28,0,0,0-4.61,1.3,3.69,3.69,0,0,0-1.44,2.95,2.43,2.43,0,0,0,1.08,2.23,2.75,2.75,0,0,0,1.73.51,6.45,6.45,0,0,0,2-.36,6.21,6.21,0,0,0,1.73-1,33.2,33.2,0,0,1,1.65-6.63c.29-.79.65-1.22,1.23-1.22a1,1,0,0,1,.79.29A.85.85,0,0,1,67.9,10.73Z"/><path class="cls-1" d="M75,9.79a10.1,10.1,0,0,1,2-.29h.36a5.24,5.24,0,0,1,1.29.08,2.59,2.59,0,0,1,.79.14L80.57,1.8A.68.68,0,0,1,81,1.22a1.16,1.16,0,0,1,.79-.28,1.26,1.26,0,0,1,.87.43,1.8,1.8,0,0,1,.07.57l-3,18.51c-.08.57-.44.86-1.23.86a1.14,1.14,0,0,1-.79-.36,1.63,1.63,0,0,1-.22-.93,2.82,2.82,0,0,0,.15-.8,10.11,10.11,0,0,1-1.73.94c-.29.14-.72.29-1,.43V18.36c.29-.14.58-.29.94-.43a14.5,14.5,0,0,0,2.16-1.37L78.91,12a8.27,8.27,0,0,0-2.09-.14A14.58,14.58,0,0,0,75,12Zm0,10.8a7.73,7.73,0,0,1-2.37.51,4.11,4.11,0,0,1-2.31-.87A3.68,3.68,0,0,1,68.69,17a7,7,0,0,1,2-4.82A8.38,8.38,0,0,1,75,9.79V12a5.57,5.57,0,0,0-2.66,1.73A5.14,5.14,0,0,0,71,17.14a1.49,1.49,0,0,0,.65,1.36,1.78,1.78,0,0,0,1,.29,7.06,7.06,0,0,0,2.3-.43Z"/><path class="cls-1" d="M105.62,2.59a.86.86,0,0,1-.36.72c-.14.29-.5.36-.86.36a20.64,20.64,0,0,0-2.52-.79,9.07,9.07,0,0,0-2.59-.5,6,6,0,0,0-3.17.79A2.52,2.52,0,0,0,94.9,5.33c0,.79.72,1.58,2.37,2.3a36.41,36.41,0,0,1,4.47,2.09,5.21,5.21,0,0,1,2.44,4.61,5.75,5.75,0,0,1-2.66,5.25A10.2,10.2,0,0,1,96.05,21a11.76,11.76,0,0,1-4.11-.86c-1.51-.58-2.3-1.37-2.3-2.23a1,1,0,0,1,.36-.8,1.34,1.34,0,0,1,.79-.36,6.63,6.63,0,0,1,1.73.87,6.94,6.94,0,0,0,3.67.93,6.58,6.58,0,0,0,4.18-1.15,3.74,3.74,0,0,0,1.37-3c0-1.51-.8-2.59-2.45-3.38-1.44-.65-3-1.23-4.39-1.88a4.33,4.33,0,0,1-2.45-4,4.36,4.36,0,0,1,2.09-3.81A8.24,8.24,0,0,1,99.22.07a16.3,16.3,0,0,1,4.32.65C104.9,1.22,105.62,1.8,105.62,2.59Z"/><path class="cls-1" d="M118.37,10.73a39.78,39.78,0,0,0-1.23,4.32,23.2,23.2,0,0,0-.5,5.11,1.12,1.12,0,0,1-.36.79,1,1,0,0,1-.79.36,1.13,1.13,0,0,1-.87-.43,2.11,2.11,0,0,1-.28-.94,3.7,3.7,0,0,1-1.52.87,4.4,4.4,0,0,1-2.23.5A5.33,5.33,0,0,1,107.28,20a4.61,4.61,0,0,1-1.73-3.82,5.81,5.81,0,0,1,2.09-4.61,7.72,7.72,0,0,1,5.26-1.87,3.41,3.41,0,0,1,2,.36.93.93,0,0,1,.22.72,1.11,1.11,0,0,1-.22.79,1.18,1.18,0,0,1-1,.36,7.5,7.5,0,0,0-4.68,1.3,3.82,3.82,0,0,0-1.36,2.95,2.43,2.43,0,0,0,1.08,2.23,2.58,2.58,0,0,0,1.72.51,6.83,6.83,0,0,0,2-.36,6.21,6.21,0,0,0,1.73-1A34.87,34.87,0,0,1,116,10.94c.36-.79.72-1.22,1.3-1.22a1.07,1.07,0,0,1,.79.29A.82.82,0,0,1,118.37,10.73Z"/><path class="cls-1" d="M131.54,13.46a6.66,6.66,0,0,1-3.38,6.12,10.33,10.33,0,0,1-5,1.44,1.32,1.32,0,0,1-.93-.36,1.22,1.22,0,0,1-.29-.72,1.7,1.7,0,0,1,.29-.86c.14-.29.43-.29.79-.29a9.06,9.06,0,0,0,3.67-1,4.5,4.5,0,0,0,2.66-4,2.38,2.38,0,0,0-.36-1.37,1.78,1.78,0,0,0-1.51-.5,10.44,10.44,0,0,0-3.45.86,13.85,13.85,0,0,1-1.88.94l-1.08,6.48a1.12,1.12,0,0,1-1.22,1,.89.89,0,0,1-.65-.36,1.06,1.06,0,0,1-.36-.87L122,1.66a1.29,1.29,0,0,1,.43-.65,1.43,1.43,0,0,1,.79-.22.82.82,0,0,1,.72.29,1.51,1.51,0,0,1,.29,1l-1.51,8.85a13.45,13.45,0,0,0,1.58-.64,11.66,11.66,0,0,1,3.53-.65,3.84,3.84,0,0,1,2.38.72A3.59,3.59,0,0,1,131.54,13.46Z"/><path class="cls-1" d="M144.14,10.66a1.22,1.22,0,0,1-.64,1.15,2.42,2.42,0,0,1-1.16.14,8.77,8.77,0,0,0-5.54,2,6.79,6.79,0,0,0-2.3,2.73l-.58,3.68a1,1,0,0,1-1.08.86,1.37,1.37,0,0,1-.94-.36,1.05,1.05,0,0,1-.36-.79l1.66-9.43a1.18,1.18,0,0,1,1.94-.72,1.09,1.09,0,0,1,.22.86l-.14,1.73a9.78,9.78,0,0,1,3.24-2.09,13.89,13.89,0,0,1,4.46-.65C143.71,9.79,144.14,10.08,144.14,10.66Z"/><path class="cls-1" d="M149.47,9.5a4,4,0,0,1,.94-.07,4.84,4.84,0,0,1,3.81,1.66,4.61,4.61,0,0,1,1.16,3.17,6.51,6.51,0,0,1-1.95,4.82,7,7,0,0,1-4,1.87V18.72a4.37,4.37,0,0,0,2.45-1.22,4,4,0,0,0,1.3-2.88,3.45,3.45,0,0,0-.72-2,3.31,3.31,0,0,0-2.6-1h-.43ZM149.4,21c-.36,0-.72.07-1.15.07a4.61,4.61,0,0,1-3.75-1.65,5.82,5.82,0,0,1-1.15-3.75,5.42,5.42,0,0,1,1.8-4.1,6.79,6.79,0,0,1,4.25-2h.07v2.09h-.07a4.86,4.86,0,0,0-2.59,1.23,3.83,3.83,0,0,0-1.15,2.66,4.06,4.06,0,0,0,.64,2.38,3.23,3.23,0,0,0,2.45.93c.22,0,.43-.07.65-.07h.07V21Z"/><path class="cls-1" d="M141.77,33.19c7.34,1.73,4.1,8.64-2.45,6.41C117.5,32.4,53.64,30.46,21.24,53.5c-1.58,1.08-2.74-.51-1.51-1.59C48,29.45,97.78,22.82,141.77,33.19Z"/><path class="cls-1" d="M149.76,33.41V28.73h.94L151.92,32a1.5,1.5,0,0,0,.14.65c.08-.15.15-.36.29-.72l1.15-3.24h.87v4.68h-.65v-4l-1.37,4h-.5l-1.44-4v4Z"/><path class="cls-1" d="M157.32,31.39h-.07v-.65h.07a1.84,1.84,0,0,0,.72-.07.37.37,0,0,0,.36-.29.76.76,0,0,0,.14-.43,1,1,0,0,0-.21-.57,2.05,2.05,0,0,0-.79-.15h-.29v-.5h.29a3.2,3.2,0,0,1,.93.14,1,1,0,0,1,.58.43,1.83,1.83,0,0,1,.14.65.91.91,0,0,1-.36.87c-.21.28-.5.36-1,.43a2.61,2.61,0,0,1,.44.21c.14.22.36.44.5.65l.79,1.3h-.79l-.58-1.08c-.21-.22-.36-.43-.5-.58s-.22-.21-.29-.29Zm-.07,0-.15-.07H156v2.09h-.72V28.73h1.95v.5H156v1.51h1.23Z"/></g></g></svg>